<svg height="512" viewBox="0 0 512 512" width="512" xmlns="http://www.w3.org/2000/svg"><g id="Filled_outline" data-name="Filled outline"><path d="m227.58 330.42a136.875 136.875 0 0 0 0 75.16 136.854 136.854 0 0 1 5.26 37.58v20.84a24.006 24.006 0 0 1 -24 24h-128a24.006 24.006 0 0 1 -24-24v-20.84a136.78 136.78 0 0 1 5.26-37.58 136.731 136.731 0 0 0 5.26-37.58 136.731 136.731 0 0 0 -5.26-37.58q-1.47-5.16-2.53-10.42a134.451 134.451 0 0 1 -2.4-17.75q-.33-4.695-.33-9.41v-34.99a137.662 137.662 0 0 1 8.22-46.87c.36-1 .73-1.99 1.12-2.98a137.577 137.577 0 0 1 22.58-38.3 39.962 39.962 0 0 0 9.13-22.28l5.35-64.22 1.6-19.2h80l1.6 19.2 5.35 64.22a40.049 40.049 0 0 0 9.13 22.28 137.651 137.651 0 0 1 31.92 88.15v34.99a136.5 136.5 0 0 1 -1.32 18.97q-.57 4.11-1.41 8.19-1.05 5.25-2.53 10.42z" fill="#7a432a"/><path d="m227.58 330.42a136.875 136.875 0 0 0 0 75.16 136.854 136.854 0 0 1 5.26 37.58v20.84a24.006 24.006 0 0 1 -24 24h-128a24.006 24.006 0 0 1 -24-24v-20.84a136.78 136.78 0 0 1 5.26-37.58 136.731 136.731 0 0 0 5.26-37.58 136.731 136.731 0 0 0 -5.26-37.58q-1.47-5.16-2.53-10.42a134.451 134.451 0 0 1 -2.4-17.75c57.56-24.18 111.42-61.07 156.45-114.56a137.586 137.586 0 0 1 19.22 70.16v34.99a136.5 136.5 0 0 1 -1.32 18.97q-.57 4.11-1.41 8.19-1.05 5.25-2.53 10.42z" fill="#6e3c26"/><path d="m186.44 83.2-9.6 4.8-16-8-16 8-16-8-16 8-9.6-4.8 1.6-19.2h80z" fill="#693924"/><path d="m232.84 257.85v34.99a136.5 136.5 0 0 1 -1.32 18.97q-.57 4.11-1.41 8.19h-170.54a134.451 134.451 0 0 1 -2.4-17.75q-.33-4.695-.33-9.41v-34.99a137.662 137.662 0 0 1 8.22-46.87c.36-1 .73-1.99 1.12-2.98h157.32a137.643 137.643 0 0 1 9.34 49.85z" fill="#f35244"/><path d="m456 225.55q0 3.225-.06 6.45a351.373 351.373 0 0 1 -15.48 96.88 351.321 351.321 0 0 0 -14.76 79.96l-5.28 79.16h-112l-5.28-79.16a351.538 351.538 0 0 0 -5.06-40.41q-2.34-12.66-5.6-25.12-1.89-7.26-4.1-14.43a351.094 351.094 0 0 1 -14.32-132.52l2.36-28.36h176l2.36 28.36q1.22 14.595 1.22 29.19z" fill="#a0dde5"/><path d="m456 225.55q0 3.225-.06 6.45a351.373 351.373 0 0 1 -15.48 96.88 351.321 351.321 0 0 0 -14.76 79.96l-5.28 79.16h-112l-5.28-79.16a351.538 351.538 0 0 0 -5.06-40.41q-2.34-12.66-5.6-25.12c47.32-39.96 90.97-96.89 127.24-175.31h32.7l2.36 28.36q1.22 14.595 1.22 29.19z" fill="#92d8e0"/><path d="m455.94 232a351.373 351.373 0 0 1 -15.48 96.88 351.321 351.321 0 0 0 -14.76 79.96l-5.28 79.16h-112l-5.28-79.16a351.538 351.538 0 0 0 -5.06-40.41q-2.34-12.66-5.6-25.12-1.89-7.26-4.1-14.43a351.373 351.373 0 0 1 -15.48-96.88z" fill="#693924"/><path d="m455.94 232a351.373 351.373 0 0 1 -15.48 96.88 351.321 351.321 0 0 0 -14.76 79.96l-5.28 79.16h-112l-5.28-79.16a351.538 351.538 0 0 0 -5.06-40.41q-2.34-12.66-5.6-25.12c33.34-28.15 64.85-64.73 93.25-111.31z" fill="#5c2e1a"/><path d="m316.42 272h48v48h-48z" fill="#8a5036"/><path d="m341.793 361.373h45.255v45.255h-45.255z" fill="#8a5036" transform="matrix(.707 -.707 .707 .707 -164.793 370.155)"/><path d="m232.84 257.85v34.99a136.5 136.5 0 0 1 -1.32 18.97q-.57 4.11-1.41 8.19h-170.54a134.451 134.451 0 0 1 -2.4-17.75c49.97-20.99 97.15-51.56 138.17-94.25h28.16a137.643 137.643 0 0 1 9.34 49.85z" fill="#e64c3f"/><path d="m192.84 64-16 8-16-8-16 8-16-8-16 8-16-8v-24a16 16 0 0 1 16-16h64a16 16 0 0 1 16 16z" fill="#f35244"/><path d="m207.069 164.583a32.041 32.041 0 0 1 -7.306-17.827l-6.18-74.183 2.835-1.418a8 8 0 0 0 4.422-7.155v-24a24.027 24.027 0 0 0 -24-24h-64a24.027 24.027 0 0 0 -24 24v24a8 8 0 0 0 4.422 7.155l16 8a8 8 0 0 0 7.156 0l12.422-6.211 12.422 6.211a8 8 0 0 0 7.156 0l12.422-6.211 12.422 6.211a7.748 7.748 0 0 0 4.873.726l5.682 68.2a48.041 48.041 0 0 0 10.958 26.742 129.3 129.3 0 0 1 16.425 25.177h-132.723a129.383 129.383 0 0 1 16.428-25.178 47.713 47.713 0 0 0 10.957-26.738l4.576-54.923-15.945-1.328-4.576 54.925a31.8 31.8 0 0 1 -7.3 17.819 145.275 145.275 0 0 0 -23.88 40.494q-.627 1.593-1.2 3.187a145.316 145.316 0 0 0 -8.7 49.592v34.99a144.1 144.1 0 0 0 2.886 28.727c.724 3.627 1.626 7.343 2.682 11.052a128.7 128.7 0 0 1 4.955 35.381 128.7 128.7 0 0 1 -4.955 35.39 144.742 144.742 0 0 0 -5.565 39.77v20.84a32.036 32.036 0 0 0 32 32h128a32.037 32.037 0 0 0 32-32v-20.84a144.791 144.791 0 0 0 -5.568-39.778 128.878 128.878 0 0 1 0-70.771c1.053-3.7 1.955-7.412 2.672-11 .592-2.877 1.1-5.805 1.5-8.689a144.822 144.822 0 0 0 1.4-20.083v-34.989a145.654 145.654 0 0 0 -33.771-93.267zm-42.651-107.738a8 8 0 0 0 -7.156 0l-12.422 6.211-12.422-6.211a8 8 0 0 0 -7.156 0l-12.422 6.211-8-4v-19.056a8.009 8.009 0 0 1 8-8h64a8.009 8.009 0 0 1 8 8v19.056l-8 4zm-99.578 201.005a129.314 129.314 0 0 1 6.939-41.85h146.121a129.115 129.115 0 0 1 6.941 41.85v34.99a128.913 128.913 0 0 1 -1.244 17.871c-.06.428-.136.86-.2 1.289h-157.121a128.7 128.7 0 0 1 -1.436-19.16zm160 206.15a16.019 16.019 0 0 1 -16 16h-128a16.019 16.019 0 0 1 -16-16v-20.84a128.86 128.86 0 0 1 4.951-35.381 144.693 144.693 0 0 0 5.569-39.779 144.7 144.7 0 0 0 -5.566-39.771c-.022-.076-.041-.153-.063-.229h150.217c-.02.074-.039.148-.06.222a144.868 144.868 0 0 0 0 79.555 128.816 128.816 0 0 1 4.952 35.383z"/><path d="m101.181 233.491-15.719-2.982a135.985 135.985 0 0 0 -2.124 17l15.971.974a119.668 119.668 0 0 1 1.872-14.992z"/><path d="m83.086 264h16v32h-16z"/><path d="m136.84 131.156v-19.156h-16v19.156a86.994 86.994 0 0 1 -14.656 48.406l13.312 8.876a102.934 102.934 0 0 0 17.344-57.282z"/><path d="m152.84 112v19.156a102.941 102.941 0 0 0 17.344 57.282l13.312-8.876a86.991 86.991 0 0 1 -14.656-48.406v-19.156z"/><path d="m136.84 352h16v80h-16z"/><path d="m96.84 352h16v80h-16z"/><path d="m176.84 352h16v80h-16z"/><path d="m462.752 195.7-2.359-28.36a8 8 0 0 0 -7.973-7.34h-176a8 8 0 0 0 -7.973 7.337l-2.359 28.363a359.065 359.065 0 0 0 14.645 135.537 343.741 343.741 0 0 1 9.48 38.647 344.784 344.784 0 0 1 4.944 39.493l5.281 79.16a8 8 0 0 0 7.982 7.463h112a8 8 0 0 0 7.982-7.468l5.281-79.16a343.726 343.726 0 0 1 14.423-78.14 359.285 359.285 0 0 0 15.832-99.079q.062-3.3.062-6.6c0-9.869-.42-19.914-1.248-29.853zm-180.719 1.326 1.749-21.026h161.276l1.749 21.024c.749 8.984 1.135 18.049 1.176 26.976h-167.129c.046-8.965.431-18.006 1.179-26.977zm150.78 129.5a359.7 359.7 0 0 0 -15.095 81.782l-4.782 71.692h-97.036l-4.782-71.689a360.614 360.614 0 0 0 -5.175-41.331 359.84 359.84 0 0 0 -9.921-40.452 343.313 343.313 0 0 1 -14.865-86.528h166.526a343.3 343.3 0 0 1 -14.87 86.526z"/><path d="m372.42 320v-48a8 8 0 0 0 -8-8h-48a8 8 0 0 0 -8 8v48a8 8 0 0 0 8 8h48a8 8 0 0 0 8-8zm-16-8h-32v-32h32z"/><path d="m370.077 346.343a8 8 0 0 0 -11.314 0l-32 32a8 8 0 0 0 0 11.314l32 32a8 8 0 0 0 11.314 0l32-32a8 8 0 0 0 0-11.314zm-5.657 58.343-20.687-20.686 20.687-20.686 20.686 20.686z"/><path d="m388.42 320h16v16h-16z"/><path d="m412.42 264h16v16h-16z"/><path d="m332.42 440h16v16h-16z"/><path d="m380.42 432h16v16h-16z"/></g></svg>