<svg id="Capa_1" enable-background="new 0 0 512 512" height="512" viewBox="0 0 512 512" width="512" xmlns="http://www.w3.org/2000/svg"><path d="m397.702 337.423c-15.197 32.484-40.329 59.063-74.102 74.522-20.521 9.397-44.24 14.681-70.858 14.681-69.497 0-119.238-36.037-144.008-87.214-26.259 9.589-69.149 34.796-70.271 60.995-.854 19.938 48.516-9.695 56.833 6.247s-38.395 48.232-25.226 62.094 64.375-30.244 75.656-23.344c10.002 6.117-.176 56.199 17.045 58.971s39.662-43.916 52.832-41.836 22.14 49.461 40.397 49.461 27.227-47.381 40.396-49.461c13.169-2.079 35.611 44.609 52.832 41.836 17.221-2.772 7.043-52.854 17.045-58.971 11.281-6.9 62.487 37.207 75.656 23.344 13.169-13.862-33.543-46.152-25.226-62.094s57.687 13.691 56.833-6.247c-1.211-28.289-54.207-55.422-75.834-62.984z" fill="#ffaa5c"/><path d="m414.589 258.952c0 20.593-3.146 40.59-9.243 59.168-13.509 41.186-41.495 75.402-81.745 93.826-20.521 9.397-44.24 14.681-70.858 14.681-102.328 0-161.846-78.116-161.846-167.675 0-19.339 1.984-38.328 5.573-56.701 5.819-29.877 15.874-58.099 28.458-83.452 34.986-70.478 89.61-118.799 127.815-118.799 37.362 0 90.433 46.214 125.471 114.182 12.934 25.055 23.4 53.061 29.723 82.794 4.266 19.997 6.652 40.786 6.652 61.976z" fill="#ffeca1"/><path d="m162.772 163.028c0 24.706-20.038 44.744-44.744 44.744-7.814 0-15.165-2.005-21.56-5.521 5.819-29.877 15.874-58.099 28.458-83.452 21.427 3.321 37.846 21.857 37.846 44.229z" fill="#e8834d"/><path d="m332.622 433.303c40.091-17.696 69.378-48.799 86.163-86.684-8.136-4.118-15.613-7.283-21.082-9.195-15.197 32.484-40.329 59.063-74.102 74.522-20.521 9.397-44.24 14.681-70.858 14.681-69.497 0-119.238-36.037-144.008-87.214-6.32 2.308-13.603 5.522-21.036 9.436 26.91 58.592 84.091 100.415 165.044 100.415 30.006-.001 56.745-5.746 79.879-15.961z" fill="#ff9838"/><path d="m407.937 196.977c-6.323-29.733-16.789-57.739-29.723-82.794-35.038-67.969-88.11-114.183-125.471-114.183-3.452 0-7.04.4-10.733 1.17 36.281 7.57 82.927 51.333 114.723 113.013 12.934 25.055 23.4 53.061 29.723 82.794 4.267 19.997 6.652 40.785 6.652 61.975 0 20.593-3.146 40.59-9.243 59.168-13.51 41.186-41.495 75.402-81.745 93.826-17.713 8.111-37.815 13.149-60.101 14.379 3.522.194 7.092.303 10.723.303 26.618 0 50.336-5.284 70.858-14.681 40.251-18.424 68.236-52.639 81.745-93.826 6.097-18.578 9.243-38.575 9.243-59.168.001-21.191-2.385-41.98-6.651-61.976z" fill="#ffdf85"/><path d="m405.346 318.12c-13.509 41.186-41.495 75.402-81.745 93.826-12.8-11.392-20.861-27.996-20.861-46.481 0-34.37 27.862-62.232 62.232-62.232 15.411-.001 29.517 5.603 40.374 14.887z" fill="#e8834d"/><path d="m387.047 307.267c-.952 3.665-2.011 7.286-3.182 10.853-11.842 36.103-34.809 66.847-67.408 86.297 2.173 2.701 4.555 5.226 7.143 7.529 40.251-18.424 68.236-52.639 81.745-93.826-5.379-4.601-11.559-8.294-18.298-10.853z" fill="#d66e41"/><path d="m407.937 196.977c-2.303.36-4.668.555-7.084.555-24.716 0-44.744-20.038-44.744-44.744 0-16.45 8.873-30.833 22.105-38.606 12.934 25.056 23.4 53.062 29.723 82.795z" fill="#e8834d"/><path d="m378.214 114.182c-5.899 3.465-10.923 8.25-14.689 13.941 9.539 20.769 17.314 43.269 22.493 66.879 4.643 1.632 9.633 2.529 14.835 2.529 2.416 0 4.781-.195 7.084-.555-6.323-29.732-16.789-57.738-29.723-82.794z" fill="#d66e41"/><g fill="#e8834d"><circle cx="179.909" cy="316.778" r="30.859"/><circle cx="256" cy="99.174" r="30.859"/><circle cx="283.597" cy="232.941" r="44.747"/></g></svg>